<svg xmlns="http://www.w3.org/2000/svg" width="27.061" height="63.937" viewBox="0 0 27.061 63.937">
  <g id="グループ_48066" data-name="グループ 48066" transform="translate(-0.112 -0.113)">
    <path id="パス_65524" data-name="パス 65524" d="M23.084,0a10.734,10.734,0,0,1,2.983,6.882V34.49a4.968,4.968,0,0,1-5,4.961H5A4.968,4.968,0,0,1,0,34.49V6.882A10.848,10.848,0,0,1,2.853.119" transform="translate(0.609 24.101)" fill="none" stroke="#fff" stroke-linecap="round" stroke-linejoin="round" stroke-width="0.994"/>
    <line id="線_69" data-name="線 69" x2="7.631" transform="translate(5.489 30.496)" fill="none" stroke="#fff" stroke-linecap="round" stroke-linejoin="round" stroke-width="0.994"/>
    <line id="線_70" data-name="線 70" x2="7.631" transform="translate(5.489 35.828)" fill="none" stroke="#fff" stroke-linecap="round" stroke-linejoin="round" stroke-width="0.994"/>
    <line id="線_71" data-name="線 71" x2="7.631" transform="translate(5.489 41.16)" fill="none" stroke="#fff" stroke-linecap="round" stroke-linejoin="round" stroke-width="0.994"/>
    <line id="線_72" data-name="線 72" x2="7.631" transform="translate(5.489 46.493)" fill="none" stroke="#fff" stroke-linecap="round" stroke-linejoin="round" stroke-width="0.994"/>
    <line id="線_73" data-name="線 73" x2="7.631" transform="translate(5.489 51.825)" fill="none" stroke="#fff" stroke-linecap="round" stroke-linejoin="round" stroke-width="0.994"/>
    <line id="線_74" data-name="線 74" x2="7.631" transform="translate(5.489 57.158)" fill="none" stroke="#fff" stroke-linecap="round" stroke-linejoin="round" stroke-width="0.994"/>
    <path id="パス_65525" data-name="パス 65525" d="M4.221,2.383c-.348,2.373,1.295,4.088.46,5.782C3.8,9.958.081,10.273,0,13.237v2H14.189v-2c-.081-2.964-3.8-3.278-4.682-5.073-.835-1.693.808-3.41.46-5.782A2.716,2.716,0,0,0,7.093,0,2.714,2.714,0,0,0,4.221,2.381Z" transform="translate(6.547 0.61)" fill="none" stroke="#fff" stroke-linecap="round" stroke-linejoin="round" stroke-width="0.994"/>
    <path id="パス_65526" data-name="パス 65526" d="M4.525,0A4.485,4.485,0,0,0,0,4.464V8.229H22.033V4.464A4.485,4.485,0,0,0,17.508,0Z" transform="translate(2.627 15.851)" fill="none" stroke="#fff" stroke-linecap="round" stroke-linejoin="round" stroke-width="0.994"/>
    <line id="線_75" data-name="線 75" y2="3.442" transform="translate(6.218 18.497)" fill="none" stroke="#fff" stroke-linecap="round" stroke-linejoin="round" stroke-width="0.994"/>
    <line id="線_76" data-name="線 76" y2="3.442" transform="translate(9.188 18.497)" fill="none" stroke="#fff" stroke-linecap="round" stroke-linejoin="round" stroke-width="0.994"/>
    <line id="線_77" data-name="線 77" y2="3.442" transform="translate(12.158 18.497)" fill="none" stroke="#fff" stroke-linecap="round" stroke-linejoin="round" stroke-width="0.994"/>
    <line id="線_78" data-name="線 78" y2="3.442" transform="translate(15.128 18.497)" fill="none" stroke="#fff" stroke-linecap="round" stroke-linejoin="round" stroke-width="0.994"/>
    <line id="線_79" data-name="線 79" y2="3.442" transform="translate(18.098 18.497)" fill="none" stroke="#fff" stroke-linecap="round" stroke-linejoin="round" stroke-width="0.994"/>
    <line id="線_80" data-name="線 80" y2="3.442" transform="translate(21.068 18.497)" fill="none" stroke="#fff" stroke-linecap="round" stroke-linejoin="round" stroke-width="0.994"/>
  </g>
</svg>
