<svg xmlns="http://www.w3.org/2000/svg" width="36.165" height="36.262" viewBox="0 0 36.165 36.262">
  <g id="グループ_39591" data-name="グループ 39591" transform="translate(0.5 0.5)">
    <g id="グループ_39589" data-name="グループ 39589" transform="translate(0 0)">
      <path id="パス_46769" data-name="パス 46769" d="M42.19,52.2,40.836,54.9a2.538,2.538,0,0,1-1.865,1.377,15.167,15.167,0,0,1-2.021.172A17.507,17.507,0,0,1,33.7,56.16a23.613,23.613,0,0,1-5.979-1.984,31.485,31.485,0,0,1-5.248-3.215A34.265,34.265,0,0,1,17.969,46.9h0l-.006-.006-.005-.005a34.268,34.268,0,0,1-3.831-4.707,31.485,31.485,0,0,1-2.944-5.4A23.611,23.611,0,0,1,9.506,30.7a17.5,17.5,0,0,1-.121-3.259,15.15,15.15,0,0,1,.277-2.023,2.541,2.541,0,0,1,1.449-1.783l2.762-1.247a2.439,2.439,0,0,1,3.226,1.22l3.04,6.736a2.2,2.2,0,0,1-.531,2.533l-2.567,2.314a.81.81,0,0,0-.16,1q.186.324.381.645c.444.738.928,1.454,1.43,2.161s1.037,1.394,1.6,2.064,1.136,1.326,1.726,1.973c.616.622,1.234,1.241,1.882,1.824s1.3,1.158,1.98,1.7,1.371,1.058,2.086,1.539q.318.217.642.425a.81.81,0,0,0,1.016-.114l2.327-2.374a2.195,2.195,0,0,1,2.553-.425l6.6,3.318A2.439,2.439,0,0,1,42.19,52.2" transform="translate(-9.357 -21.186)" fill="none" stroke="#fff" stroke-width="1"/>
      <path id="パス_46770" data-name="パス 46770" d="M42.19,52.2,40.836,54.9a2.538,2.538,0,0,1-1.865,1.377,15.167,15.167,0,0,1-2.021.172A17.507,17.507,0,0,1,33.7,56.16a23.613,23.613,0,0,1-5.979-1.984,31.485,31.485,0,0,1-5.248-3.215A34.265,34.265,0,0,1,17.969,46.9h0l-.006-.006-.005-.005a34.268,34.268,0,0,1-3.831-4.707,31.485,31.485,0,0,1-2.944-5.4A23.611,23.611,0,0,1,9.506,30.7a17.5,17.5,0,0,1-.121-3.259,15.15,15.15,0,0,1,.277-2.023,2.541,2.541,0,0,1,1.449-1.783l2.762-1.247a2.439,2.439,0,0,1,3.226,1.22l3.04,6.736a2.2,2.2,0,0,1-.531,2.533l-2.567,2.314a.81.81,0,0,0-.16,1q.186.324.381.645c.444.738.928,1.454,1.43,2.161s1.037,1.394,1.6,2.064,1.136,1.326,1.726,1.973c.616.622,1.234,1.241,1.882,1.824s1.3,1.158,1.98,1.7,1.371,1.058,2.086,1.539q.318.217.642.425a.81.81,0,0,0,1.016-.114l2.327-2.374a2.195,2.195,0,0,1,2.553-.425l6.6,3.318A2.439,2.439,0,0,1,42.19,52.2Z" transform="translate(-9.357 -21.186)" fill="none" stroke="#fff" stroke-linecap="round" stroke-linejoin="round" stroke-width="1"/>
      <path id="パス_46771" data-name="パス 46771" d="M226.049,9.921a17.913,17.913,0,0,1,17.722,18.124" transform="translate(-208.607 -9.921)" fill="none" stroke="#fff" stroke-linejoin="round" stroke-width="1"/>
      <path id="パス_46772" data-name="パス 46772" d="M225.219,84.152a11.943,11.943,0,0,1,11.815,12.082" transform="translate(-207.844 -78.177)" fill="none" stroke="#fff" stroke-linejoin="round" stroke-width="1"/>
      <path id="パス_46773" data-name="パス 46773" d="M224.39,158.368a5.971,5.971,0,0,1,5.907,6.042" transform="translate(-207.082 -146.419)" fill="none" stroke="#fff" stroke-linejoin="round" stroke-width="1"/>
    </g>
  </g>
</svg>
