<svg xmlns="http://www.w3.org/2000/svg" width="37" height="37" viewBox="0 0 37 37">
  <g id="グループ_39906" data-name="グループ 39906" transform="translate(-801 -2327)">
    <circle id="楕円形_10880" data-name="楕円形 10880" cx="18.5" cy="18.5" r="18.5" transform="translate(801 2327)" fill="#868686"/>
    <path id="パス_25159" data-name="パス 25159" d="M3.154,18.145a5.054,5.054,0,0,1-1.673-8.26l2.4-2.4a1.237,1.237,0,0,1,1.75,1.749l-2.4,2.4a2.619,2.619,0,0,0-.462.626,2.58,2.58,0,0,0,.462,3.026,2.58,2.58,0,0,0,2.8.567,2.583,2.583,0,0,0,.853-.567l2.4-2.4a1.237,1.237,0,0,1,1.749,1.749l-2.4,2.4a5.058,5.058,0,0,1-5.477,1.11Zm2.977-5.761a1.237,1.237,0,0,1,0-1.749l4.5-4.5a1.237,1.237,0,0,1,1.749,1.749l-4.5,4.5a1.237,1.237,0,0,1-1.75,0Zm6.759-1.357a1.238,1.238,0,0,1,0-1.75l2.4-2.4a2.582,2.582,0,1,0-3.651-3.652l-2.4,2.4a1.237,1.237,0,0,1-1.75-1.75l2.4-2.4a5.056,5.056,0,1,1,7.15,7.15l-2.4,2.4a1.238,1.238,0,0,1-1.749,0Z" transform="translate(810.242 2336.242)" fill="#fff"/>
  </g>
</svg>
