<svg xmlns="http://www.w3.org/2000/svg" width="292.03" height="93.974" viewBox="0 0 292.03 93.974">
  <path id="合体_1" data-name="合体 1" d="M137.025,92.535a5.878,5.878,0,0,1-.248-3.445,9.108,9.108,0,0,0,.342-1.552,11.331,11.331,0,0,1,.965-2.483,10.926,10.926,0,0,0,.778-1.8c0-.557,3.084-6.7,4.454-8.905a14.628,14.628,0,0,0,1.464-2.67,3.018,3.018,0,0,1,.623-1.147,4.755,4.755,0,0,0,.778-1.986,17.417,17.417,0,0,1,.467-2.267,10.213,10.213,0,0,0,.313-1.427c0-.652-1.247-.682-2.959-.093-1.9.652-2.865.465-3.457-.775a2.284,2.284,0,0,1,.809-2.576c.811-.621,5.046-1.24,6.291-.931a4.34,4.34,0,0,1,2.867,3.414,3.509,3.509,0,0,0,.4,1.459,2.134,2.134,0,0,0,.84-.59,53.527,53.527,0,0,1,5.949-4,28.242,28.242,0,0,1,6.384-2.421c2.429-.557,2.46-.526,3.457.528,1.059,1.149,1.122,1.614.279,2.389-.5.467-1.276.652-3.269.746a10.751,10.751,0,0,0-5.481,1.646c-2.99,1.49-3.768,2.078-7.754,5.9-2.523,2.389-3.955,4.779-5.917,9.836-.5,1.336-1.059,2.67-1.215,2.948a74.562,74.562,0,0,0-3.019,7.387,2.5,2.5,0,0,1-.156.777,3.135,3.135,0,0,0-.125.465,3.645,3.645,0,0,1-.9,1.768,2.377,2.377,0,0,1-1.225.243A2.737,2.737,0,0,1,137.025,92.535ZM25.594,91.511c-3.394,0-4.328-.343-6.447-2.236a18.257,18.257,0,0,1-3.768-5.866c-1.464-4.22-1.216-12.2.53-18,.342-1.149.655-2.452.747-2.917a9.733,9.733,0,0,1,.717-2.173,32.079,32.079,0,0,0,1.09-3.2c.279-1.024.778-2.7,1.089-3.723a23.241,23.241,0,0,0,.78-2.917c.248-1.336-.313-3.353-1-3.725-1.184-.621-3.613-.434-5.357.434-.436.218-1.4.652-2.181.962a13.823,13.823,0,0,0-4.36,2.795c-1.432,1.272-3.207,2.3-3.924,2.3a1.72,1.72,0,0,0-1.122.621c-.561.65-2.023,1.147-2.335.806-.125-.125-.031-.652.156-1.211a5.983,5.983,0,0,0,.373-1.55,1.315,1.315,0,0,1,.561-.9,14.692,14.692,0,0,0,1.931-2.265c1.37-1.862,2.4-3.135,4.983-6.144.778-.87,1.993-2.389,2.708-3.322,2.118-2.824,5.14-5.741,6.7-6.454a12.719,12.719,0,0,1,1.681-.684,4.814,4.814,0,0,0,1.122-.684,43.174,43.174,0,0,1,3.8-2.078c2.275-1.118,3.146-1.4,4.36-1.367,3.146.062,5.513,2.98,6.168,7.573a15.983,15.983,0,0,1-.094,6.549c-.188.744-.4,1.737-.467,2.2a5.571,5.571,0,0,1-.592,1.708,32.648,32.648,0,0,0-1.9,4.407c-.031.247-.311,1.3-.592,2.327-.9,3.289-1.339,5.525-1.214,5.9a3.843,3.843,0,0,1-.125,1.583c-.281,1.272.094,5.585.561,6.175A4.732,4.732,0,0,1,30.64,67.8a4.239,4.239,0,0,0,2.615,3.445c1.028.341,1.589.31,3.645-.156a13.12,13.12,0,0,0,3.146-.962,2.638,2.638,0,0,1,1.089-.434,24.93,24.93,0,0,0,4.672-3.507,2.085,2.085,0,0,1,.84-.528c.592,0,9.625-9.34,11.4-11.76,1.028-1.429,2.585-3.445,3.457-4.5.872-1.024,2.335-2.98,3.269-4.345.934-1.336,1.9-2.732,2.15-3.1a69.125,69.125,0,0,1,6.134-6.983c.811-.744,3.334-3.133,5.544-5.276,4.018-3.879,7.412-6.859,7.754-6.859.094,0-.279.652-.9,1.459a21.258,21.258,0,0,0-2.8,5.556,12.321,12.321,0,0,1-1.307,2.637,13.81,13.81,0,0,0-1.434,2.763,16.823,16.823,0,0,1-.965,2.327c-.4.775-.436.993-.061,1.24.311.249.342.777.123,2.483-.4,3.229.25,12.942,1.028,14.711a20,20,0,0,0,3.426,4.222c2.585,2.637,2.959,2.917,4.735,3.383,1.774.5,2.148.5,4.7.031a29.061,29.061,0,0,0,6.572-1.614,51.59,51.59,0,0,0,7.006-4.129,104.784,104.784,0,0,0,9.81-8.565A29.378,29.378,0,0,1,120.3,44.74a76.983,76.983,0,0,0,8.315-10.273,74.139,74.139,0,0,0,3.987-6.362,34.92,34.92,0,0,1,1.962-3.1c.655-.931,1.774-2.514,2.46-3.476a8.326,8.326,0,0,1,1.806-2.08,11.567,11.567,0,0,0,1.931-2.111,105.025,105.025,0,0,1,7.2-7.79c.311-.278,1.151-1.118,1.868-1.862a12.168,12.168,0,0,1,2.46-1.924,17.857,17.857,0,0,0,2.46-1.708,19.887,19.887,0,0,1,6.384-3.2c.686-.187,1.743-.465,2.335-.652A7.454,7.454,0,0,1,165.646.02c1.495.185,7.942,3.445,8.688,4.376a15.071,15.071,0,0,1,2.273,6.765,2.822,2.822,0,0,1-.342,1.675c-.188.062-.342.405-.342.746,0,.652-2.025,2.73-2.679,2.73-.592,0-1.993,1.833-1.993,2.608,0,.621-.123.684-.965.559-.934-.125-.965-.093-.778.744.186.777.094.962-.717,1.3a1.953,1.953,0,0,0-1.059.993,1.106,1.106,0,0,1-1.026.682,1.579,1.579,0,0,0-1.372,1.087,3.263,3.263,0,0,1-2.367,1.646,17.611,17.611,0,0,1-1-1.955c-1.4-2.855-1.712-3.135-4.329-4.035-1.184-.4-1.307-.372-2.056.278-.467.405-.84.839-.84,1.024a30.321,30.321,0,0,1-3.269,3.57,21.907,21.907,0,0,0-3.271,3.692,7.705,7.705,0,0,1-1.526,2.173,10.426,10.426,0,0,0-1.712,2.514,2,2,0,0,1-1.028,1.178c-.9.436-2.585,2.948-4.329,6.456a20.172,20.172,0,0,1-4.268,5.431c-1.712,1.708-3.643,3.848-4.329,4.717a6.168,6.168,0,0,1-1.495,1.646c-.154,0-.5.465-.778,1.055a2.419,2.419,0,0,1-1.184,1.241,2.444,2.444,0,0,0-1.214,1.367c-.373.806-1.37,1.8-3.332,3.258a32.449,32.449,0,0,1-2.959,2.08,14.316,14.316,0,0,0-1.962,1.8c-1,.993-2.492,2.358-3.365,3.042-3.176,2.545-6.259,4.966-7.287,5.679a67.727,67.727,0,0,1-8.626,4.872,21.182,21.182,0,0,0-2.927,1.4c-2.927,1.677-10.371,3.322-16.194,3.57-2.335.093-2.8,0-3.893-.652-1.651-.931-6.23-6.019-6.976-7.7-1.683-3.692-1.683-3.848-1.495-10.551.125-3.445.342-6.828.5-7.48.623-2.576-.031-1.986-3.426,2.917a29.924,29.924,0,0,1-2.21,2.886,1.815,1.815,0,0,0-.561.993,8.5,8.5,0,0,1-1.62,2.327c-2.15,2.389-2.927,3.414-3.177,4.222a17.731,17.731,0,0,1-2.771,3.165A31.388,31.388,0,0,0,50.7,75.838a5.864,5.864,0,0,1-2.119,1.8,3.607,3.607,0,0,0-1.276.837c0,.434-3.924,4.16-4.889,4.687a2.36,2.36,0,0,0-1.122.962,4.558,4.558,0,0,1-1.62,1.147,3.729,3.729,0,0,0-1.587,1.242,4.127,4.127,0,0,1-2.306,1.8,7.538,7.538,0,0,0-1.743.931,13.253,13.253,0,0,1-8.2,2.268Zm148.74-3.042c-2.523-2.452-2.927-3.32-2.927-6.362V79.468l-1.028-.031c-1.307-.031-2.648-1.209-2.367-2.109a4.345,4.345,0,0,1,1.028-1.521,2.008,2.008,0,0,1,2.148-.777l1.341.093.653-1.552a32.969,32.969,0,0,1,2.959-5.8,1.121,1.121,0,0,0,.4-.713,1.908,1.908,0,0,1,.623-.931,1.868,1.868,0,0,0,.623-.9,4.75,4.75,0,0,1,1.028-1.49c.53-.65,1.557-1.8,2.241-2.606a11.215,11.215,0,0,1,4.858-3.476,5.627,5.627,0,0,1,4.516.372c2.243,1.024,2.834,2.173,2.679,5.059l-.125,2.2-1.745,1.427a31.557,31.557,0,0,0-3.113,2.948,45.057,45.057,0,0,1-6.851,5.866,29.663,29.663,0,0,1-3.488,1.924c-2.429,1.211-2.46,1.242-2.648,2.639a4.874,4.874,0,0,0,0,1.924,1.885,1.885,0,0,1,.188.931c-.094.652,1.339,2.514,2.585,3.351,2.273,1.521,5.075.9,9.748-2.234,5.544-3.725,7.567-4.625,8.44-3.755,1,.991.279,2.109-2.585,3.908-2.243,1.429-2.335,1.49-4.049,2.639-.84.559-2.179,1.365-2.959,1.768a18.309,18.309,0,0,0-1.868,1.118,12.882,12.882,0,0,1-4.921,1.365A8.113,8.113,0,0,1,174.335,88.469Zm8.97-24.89a40.627,40.627,0,0,0-4.921,6.981c-.375.808-.842,1.833-1.09,2.3-.373.806-.342.869.188.869.342,0,.621-.125.621-.278s.561-.5,1.216-.777a14.272,14.272,0,0,0,3.3-2.358,14.585,14.585,0,0,1,2.335-1.862c.436,0,4.049-4.407,4.237-5.184a1.133,1.133,0,0,0-.5-1.4,2.6,2.6,0,0,0-1.372-.559A7.416,7.416,0,0,0,183.3,63.579Zm20.3,26.224a4.512,4.512,0,0,1-1.276-3.445,13.309,13.309,0,0,0,.217-1.521,5.068,5.068,0,0,1,.936-2.171,3.871,3.871,0,0,0,.778-1.149,2.828,2.828,0,0,1,.715-1.024,20.956,20.956,0,0,0,1.557-1.986c3.52-5,13.486-12.693,16.974-13.1,1.37-.156,1.587-.5.872-1.459-.5-.684-4.516-1.459-5.792-1.087-2.306.652-4.983,2.389-4.983,3.229,0,.185-.623.744-1.432,1.209-2.087,1.242-3.551.652-3.551-1.459,0-.559.5-1.178,1.806-2.265a16.767,16.767,0,0,0,2.025-1.893.888.888,0,0,1,.592-.374,1.877,1.877,0,0,0,.9-.5,11.71,11.71,0,0,1,2.834-1.24,11.581,11.581,0,0,1,8.44.278c2.9,1.3,4.049,2.917,4.36,6.115a4.619,4.619,0,0,1-.592,3.538,8.316,8.316,0,0,0-.872,2.171,4.578,4.578,0,0,1-.9,1.8,5.189,5.189,0,0,0-.84,1.3,1.883,1.883,0,0,1-.467.713,2.839,2.839,0,0,0-.686,1.367c-.094.5-.279.9-.436.9s-.279.247-.279.59a6.509,6.509,0,0,1-.467,1.706c-.748,1.737-.313,2.234,2.179,2.452a6.725,6.725,0,0,0,3.987-.559,11.935,11.935,0,0,0,2.367-1.209c.78-.684,1.931-.746,2.335-.093.281.5.094.806-1.339,2.109a11.351,11.351,0,0,1-5.855,3.166c-3.146.715-6.6-.278-7.537-2.173-.279-.557-.621-1.022-.809-1.022a7.773,7.773,0,0,0-1.837,1.4,6.248,6.248,0,0,1-1.868,1.4,8.63,8.63,0,0,0-2.056,1.583,11.691,11.691,0,0,1-6.259,3.258,12.414,12.414,0,0,1-1.717.166A3,3,0,0,1,203.608,89.8Zm19.341-19.739a16.312,16.312,0,0,0-5.14,2.423,43.116,43.116,0,0,0-6.353,5.338c-.623.713-1.339,1.519-1.589,1.768-1.432,1.521-3.426,4.345-3.426,4.872a1.577,1.577,0,0,1-.311.931c-.248.249-.156.528.219.993l.561.684,1.806-.621A11.325,11.325,0,0,0,212.3,84.34c1-.806,2.4-1.955,3.176-2.545,1.464-1.116,4.672-4.313,4.672-4.654a2.051,2.051,0,0,1,.621-.775,10.869,10.869,0,0,0,1.557-2.452c.53-1.055,1.216-2.329,1.526-2.826a4.322,4.322,0,0,0,.623-1.178c.014-.11,0-.171-.148-.171A7.573,7.573,0,0,0,222.949,70.064Zm21.084,13c-1.837-1.274-2.335-2.018-2.585-3.817-.28-1.986.313-4.253,1.993-7.7a28.84,28.84,0,0,1,8.97-11.357,12.986,12.986,0,0,0,1.526-1.242c.561-.682,5.667-3.2,7.506-3.723,3.518-1.024,7.1-.125,8.065,2.049.53,1.178.561,1.178,1.276.744a2.866,2.866,0,0,0,.936-1.149c.092-.372.559-1.459.965-2.389a20.019,20.019,0,0,0,1.837-4.9,6.336,6.336,0,0,1,.747-1.706,4.341,4.341,0,0,0,.623-1.986,1.968,1.968,0,0,1,.279-1.18,3.489,3.489,0,0,0,.686-1.334,27.452,27.452,0,0,1,1.153-2.855c.4-.931.872-1.986,1-2.327s.467-1.118.715-1.708.686-1.8.965-2.637a21.207,21.207,0,0,1,1.9-4.9,1.781,1.781,0,0,0,.281-1.274,2.411,2.411,0,0,1,.655-1.706,3.871,3.871,0,0,0,.778-1.677,28.333,28.333,0,0,1,1.432-5.182,15.979,15.979,0,0,0,.934-5.122c.156-1.924.125-2.265-.5-3.042a1.53,1.53,0,0,0-1.743-.713,3.181,3.181,0,0,1-2.306-.777c-.684-.5-1.245-1.054-1.245-1.24,0-.746,2.492-2.3,4.049-2.514,1.618-.247,4.608,1.149,4.889,2.236a5.659,5.659,0,0,0,.684,1.55c.5.777.748,5.091.313,5.743a4.021,4.021,0,0,0-.344,1.4,16.356,16.356,0,0,1-.653,2.483c-.281.775-1,3.011-1.62,4.966a35.451,35.451,0,0,1-1.526,4.189,22.414,22.414,0,0,0-1.62,4.345,5.783,5.783,0,0,1-.4,1.242,8.882,8.882,0,0,0-.53,1.612,21.541,21.541,0,0,1-1.214,2.98,38.156,38.156,0,0,0-1.714,4.438c-.373,1.18-.778,2.421-.934,2.761-.248.559-.746,1.77-1.557,3.725-.154.341-.467,1.118-.747,1.706-.686,1.614-4.049,11.98-4.08,12.571a15.825,15.825,0,0,1-.965,2.327,24.366,24.366,0,0,0-1.182,2.886,8.3,8.3,0,0,1-1,2.08c-1.495,2.234-1.341,6.672.279,7.883.778.557.965.588,2.46.216a11.109,11.109,0,0,0,1.962-.652c.188-.154,1.216-.713,2.335-1.3s2.554-1.365,3.209-1.737c1.526-.9,3.332-.87,3.332.062,0,.682-5.356,4.654-8.409,6.238a7.8,7.8,0,0,1-6.259.9c-1.868-.434-2.15-.59-2.99-1.768a8.57,8.57,0,0,1-1.37-6.208c.279-2.14-.156-2.637-1.278-1.334-.4.434-1.245,1.4-1.868,2.111a8.031,8.031,0,0,0-1.37,1.862c-.094.31-.281.559-.436.559A7.64,7.64,0,0,0,258.7,79a8.267,8.267,0,0,1-1.526,1.242,5.146,5.146,0,0,0-1.059.744,24.286,24.286,0,0,1-3.019,1.893,7.742,7.742,0,0,1-4.86,1.18c-.468.011-.857.019-1.19.019A3.883,3.883,0,0,1,244.033,83.069Zm16.443-23.4c-2.4.962-3.893,1.706-3.893,1.955a5.692,5.692,0,0,1-1.649,1.365A21.468,21.468,0,0,0,248.8,69.6c-.4.746-.84,1.336-1,1.336a.174.174,0,0,0-.186.216,4.239,4.239,0,0,1-.965,2.111c-.188.093-.344.652-.344,1.24s-.123,1.149-.311,1.242a3.816,3.816,0,0,0-.311,1.862c0,1.552.061,1.737.9,2.142a5.6,5.6,0,0,0,2.087.528c1.556.06,4.11-.87,4.514-1.614.156-.341.436-.59.592-.59.965,0,3.987-2.948,7.911-7.758,1.774-2.173,6.1-8.535,6.1-8.97,0-.185.092-.341.248-.341.125,0,.4-.278.623-.652.373-.588.342-.619-.717-.4a4.174,4.174,0,0,1-1.806-.093c-.373-.185-1.09-.5-1.557-.682a3.531,3.531,0,0,0-1.321-.317A8.4,8.4,0,0,0,260.476,59.669Z" transform="translate(0.491 0.51)" fill="#020102" stroke="rgba(0,0,0,0)" stroke-miterlimit="10" stroke-width="1"/>
</svg>
