<svg id="グループ_48134" data-name="グループ 48134" xmlns="http://www.w3.org/2000/svg" xmlns:xlink="http://www.w3.org/1999/xlink" width="69.87" height="77.999" viewBox="0 0 69.87 77.999">
  <defs>
    <clipPath id="clip-path">
      <rect id="長方形_42650" data-name="長方形 42650" width="69.87" height="77.999" fill="none" stroke="#fff" stroke-width="1"/>
    </clipPath>
  </defs>
  <g id="グループ_48129" data-name="グループ 48129" transform="translate(0 0)" clip-path="url(#clip-path)">
    <rect id="長方形_42649" data-name="長方形 42649" width="11.416" height="23.587" transform="translate(0.883 48.932)" fill="none" stroke="#fff" stroke-linecap="round" stroke-linejoin="round" stroke-width="1"/>
    <path id="パス_65572" data-name="パス 65572" d="M3.274,13.956h9.3l18.692,7.479a3.933,3.933,0,0,1,2.321,4.729,3.826,3.826,0,0,1-4.763,2.618L15.663,24.891" transform="translate(9.025 38.469)" fill="none" stroke="#fff" stroke-linecap="round" stroke-linejoin="round" stroke-width="1"/>
    <path id="パス_65573" data-name="パス 65573" d="M3.274,27.322H6.159l20.95,7.28a8.192,8.192,0,0,0,6.172-.323L57.754,22.788a3.828,3.828,0,0,0,1.972-4.778,4.184,4.184,0,0,0-5.139-2.573l-20.852,6.3" transform="translate(9.025 42.06)" fill="none" stroke="#fff" stroke-linecap="round" stroke-linejoin="round" stroke-width="1"/>
    <path id="パス_65574" data-name="パス 65574" d="M43.816,32.893H6.492V4.46H43.816Z" transform="translate(17.895 12.295)" fill="none" stroke="#fff" stroke-linecap="round" stroke-linejoin="round" stroke-width="1"/>
    <line id="線_89" data-name="線 89" y2="27.786" transform="translate(38.345 17.402)" fill="none" stroke="#fff" stroke-linecap="round" stroke-linejoin="round" stroke-width="1"/>
    <line id="線_90" data-name="線 90" y2="0.646" transform="translate(38.345 16.756)" fill="none" stroke="#fff" stroke-linecap="round" stroke-linejoin="round" stroke-width="1"/>
    <path id="パス_65575" data-name="パス 65575" d="M23.1,15.558,16.816.236,6.967,7.215l12.175,8.892" transform="translate(19.203 0.651)" fill="none" stroke="#fff" stroke-linecap="round" stroke-linejoin="round" stroke-width="1"/>
    <line id="線_91" data-name="線 91" y1="28.433" transform="translate(47.754 16.755)" fill="none" stroke="#fff" stroke-linecap="round" stroke-linejoin="round" stroke-width="1"/>
    <line id="線_92" data-name="線 92" y1="6.675" x2="11.266" transform="translate(24.359 16.755)" fill="none" stroke="#fff" stroke-linecap="round" stroke-linejoin="round" stroke-width="1"/>
    <line id="線_93" data-name="線 93" y1="8.148" x2="13.756" transform="translate(24.359 23.103)" fill="none" stroke="#fff" stroke-linecap="round" stroke-linejoin="round" stroke-width="1"/>
    <line id="線_94" data-name="線 94" y1="8.099" x2="13.673" transform="translate(24.359 30.972)" fill="none" stroke="#fff" stroke-linecap="round" stroke-linejoin="round" stroke-width="1"/>
    <line id="線_95" data-name="線 95" y1="6.393" x2="10.796" transform="translate(27.236 38.794)" fill="none" stroke="#fff" stroke-linecap="round" stroke-linejoin="round" stroke-width="1"/>
    <line id="線_96" data-name="線 96" y1="6.675" x2="11.266" transform="translate(47.793 16.755)" fill="none" stroke="#fff" stroke-linecap="round" stroke-linejoin="round" stroke-width="1"/>
    <line id="線_97" data-name="線 97" y1="8.148" x2="13.756" transform="translate(47.793 23.103)" fill="none" stroke="#fff" stroke-linecap="round" stroke-linejoin="round" stroke-width="1"/>
    <line id="線_98" data-name="線 98" y1="8.099" x2="13.673" transform="translate(47.793 30.972)" fill="none" stroke="#fff" stroke-linecap="round" stroke-linejoin="round" stroke-width="1"/>
    <line id="線_99" data-name="線 99" y1="6.393" x2="10.796" transform="translate(50.669 38.794)" fill="none" stroke="#fff" stroke-linecap="round" stroke-linejoin="round" stroke-width="1"/>
    <path id="パス_65576" data-name="パス 65576" d="M11.683,15.558,17.964.236l9.849,6.979L15.638,16.107" transform="translate(32.203 0.651)" fill="none" stroke="#fff" stroke-linecap="round" stroke-linejoin="round" stroke-width="1"/>
  </g>
</svg>
