<svg xmlns="http://www.w3.org/2000/svg" width="55.729" height="47.301" viewBox="0 0 55.729 47.301">
  <g id="グループ_39596" data-name="グループ 39596" transform="translate(-0.001 0)">
    <g id="グループ_39597" data-name="グループ 39597">
      <rect id="長方形_35974" data-name="長方形 35974" width="47.908" height="29.038" rx="2.002" transform="translate(0.501 0.5)" fill="none" stroke="#fff" stroke-miterlimit="10" stroke-width="1"/>
      <line id="線_18" data-name="線 18" y1="7.256" x2="7.358" transform="translate(6.174 0.5)" fill="none" stroke="#fff" stroke-miterlimit="10" stroke-width="1"/>
      <line id="線_19" data-name="線 19" y1="16.575" x2="16.809" transform="translate(5.07 0.5)" fill="none" stroke="#fff" stroke-miterlimit="10" stroke-width="1"/>
      <line id="線_20" data-name="線 20" y2="4.789" transform="translate(20.037 29.957)" fill="none" stroke="#fff" stroke-miterlimit="10" stroke-width="1"/>
      <line id="線_21" data-name="線 21" y2="4.789" transform="translate(28.872 29.957)" fill="none" stroke="#fff" stroke-miterlimit="10" stroke-width="1"/>
      <line id="線_22" data-name="線 22" x2="18.255" transform="translate(15.327 34.746)" fill="none" stroke="#fff" stroke-miterlimit="10" stroke-width="1"/>
      <path id="パス_46782" data-name="パス 46782" d="M38.633,29.957v3.4a1.389,1.389,0,0,0,1.388,1.388h13.82a1.388,1.388,0,0,0,1.388-1.388V7.586A1.388,1.388,0,0,0,53.841,6.2H48.409" fill="none" stroke="#fff" stroke-miterlimit="10" stroke-width="1"/>
      <line id="線_23" data-name="線 23" x2="6.821" transform="translate(48.409 12.964)" fill="none" stroke="#fff" stroke-miterlimit="10" stroke-width="1"/>
      <line id="線_24" data-name="線 24" x2="6.821" transform="translate(48.409 17.569)" fill="none" stroke="#fff" stroke-miterlimit="10" stroke-width="1"/>
      <path id="パス_46783" data-name="パス 46783" d="M39.731,46.8H9.177a.468.468,0,0,1-.427-.662l2.575-5.669a.467.467,0,0,1,.426-.274H37.157a.468.468,0,0,1,.426.274l2.575,5.669A.468.468,0,0,1,39.731,46.8Z" fill="none" stroke="#fff" stroke-miterlimit="10" stroke-width="1"/>
      <path id="パス_46784" data-name="パス 46784" d="M52.835,44.719H44.117V43.542a3,3,0,0,1,3-3h2.718a3,3,0,0,1,3,3Z" fill="none" stroke="#fff" stroke-miterlimit="10" stroke-width="1"/>
    </g>
  </g>
</svg>
