<svg xmlns="http://www.w3.org/2000/svg" width="57.047" height="49.65" viewBox="0 0 57.047 49.65">
  <g id="グループ_48061" data-name="グループ 48061" transform="translate(0.704 0.853)">
    <path id="パス_65537" data-name="パス 65537" d="M.328,23.246,27.829.328l27.565,22.98" transform="translate(-0.328 2.38)" fill="none" stroke="#fff" stroke-linecap="round" stroke-linejoin="round" stroke-width="1"/>
    <path id="パス_65538" data-name="パス 65538" d="M48.71,16.568V43.931H5.722V16.181" transform="translate(0.348 4.366)" fill="none" stroke="#fff" stroke-linecap="round" stroke-linejoin="round" stroke-width="1"/>
    <path id="長方形_42639" data-name="長方形 42639" d="M1.04,0H24.232a1.04,1.04,0,0,1,1.04,1.04V15.9a1.041,1.041,0,0,1-1.041,1.041H1.04A1.04,1.04,0,0,1,0,15.9V1.04A1.04,1.04,0,0,1,1.04,0Z" transform="translate(14.742 24.11)" fill="none" stroke="#fff" stroke-linecap="round" stroke-linejoin="round" stroke-width="1"/>
    <path id="パス_65539" data-name="パス 65539" d="M37.056,21.865a5.627,5.627,0,0,1-5.626,5.626H26.557" transform="translate(2.958 5.078)" fill="none" stroke="#fff" stroke-linecap="round" stroke-linejoin="round" stroke-width="1"/>
    <path id="パス_65540" data-name="パス 65540" d="M23.9,27.491H19.055a5.627,5.627,0,0,1-5.626-5.626" transform="translate(1.313 5.078)" fill="none" stroke="#fff" stroke-linecap="round" stroke-linejoin="round" stroke-width="1"/>
    <path id="長方形_42640" data-name="長方形 42640" d="M.782,0H3.429a.783.783,0,0,1,.783.783V3.43a.782.782,0,0,1-.782.782H.782A.782.782,0,0,1,0,3.43V.782A.782.782,0,0,1,.782,0Z" transform="translate(25.272 30.458)" fill="none" stroke="#fff" stroke-linecap="round" stroke-linejoin="round" stroke-width="1"/>
    <path id="パス_65541" data-name="パス 65541" d="M20.722,19.564V17.358a1.287,1.287,0,0,1,1.288-1.287h6.281a1.288,1.288,0,0,1,1.288,1.287v2.206" transform="translate(2.227 4.352)" fill="none" stroke="#fff" stroke-linecap="round" stroke-linejoin="round" stroke-width="1"/>
    <g id="グループ_48063" data-name="グループ 48063" transform="matrix(0.766, 0.643, -0.643, 0.766, 42.513, 0)">
      <g id="グループ_48064" data-name="グループ 48064" transform="translate(0 0)">
        <path id="パス_65542" data-name="パス 65542" d="M0,3.676s7.905-8.272,16.911,0" transform="translate(0 0)" fill="none" stroke="#fff" stroke-linecap="round" stroke-linejoin="round" stroke-width="1"/>
        <path id="パス_65543" data-name="パス 65543" d="M0,2.644C2.014.822,6.816-2.315,12.228,2.752" transform="translate(2.39 3.219)" fill="none" stroke="#fff" stroke-linecap="round" stroke-linejoin="round" stroke-width="1"/>
        <path id="パス_65544" data-name="パス 65544" d="M0,1.886c1.644-1.632,4.53-3.314,7.777.1" transform="translate(4.617 6.357)" fill="none" stroke="#fff" stroke-linecap="round" stroke-linejoin="round" stroke-width="1"/>
      </g>
    </g>
  </g>
</svg>
