<svg xmlns="http://www.w3.org/2000/svg" width="37" height="37" viewBox="0 0 37 37">
  <g id="グループ_39908" data-name="グループ 39908" transform="translate(-711 -2327)">
    <circle id="楕円形_10878" data-name="楕円形 10878" cx="18.5" cy="18.5" r="18.5" transform="translate(711 2327)" fill="#1d9bf0"/>
    <path id="Logo" d="M128.13,182.172c.012.181.012.364.012.547A11.958,11.958,0,0,1,116.1,194.758v0a11.978,11.978,0,0,1-6.486-1.9,8.484,8.484,0,0,0,6.262-1.754,4.237,4.237,0,0,1-3.953-2.939,4.218,4.218,0,0,0,1.91-.072,4.234,4.234,0,0,1-3.394-4.148v-.053a4.2,4.2,0,0,0,1.92.529,4.234,4.234,0,0,1-1.31-5.648,12.014,12.014,0,0,0,8.721,4.421,4.235,4.235,0,0,1,7.211-3.859,8.483,8.483,0,0,0,2.687-1.027,4.244,4.244,0,0,1-1.86,2.34,8.466,8.466,0,0,0,2.43-.665A8.62,8.62,0,0,1,128.13,182.172Z" transform="translate(610.571 2160)" fill="#fff"/>
  </g>
</svg>
