<svg xmlns="http://www.w3.org/2000/svg" xmlns:xlink="http://www.w3.org/1999/xlink" width="90" height="77.725" viewBox="0 0 90 77.725">
  <defs>
    <clipPath id="clip-path">
      <rect id="長方形_42619" data-name="長方形 42619" width="90" height="77.725" fill="none" stroke="#fff" stroke-width="1"/>
    </clipPath>
  </defs>
  <g id="グループ_48052" data-name="グループ 48052" transform="translate(0 0)">
    <g id="グループ_48047" data-name="グループ 48047" transform="translate(0 0)">
      <g id="グループ_48046" data-name="グループ 48046" clip-path="url(#clip-path)">
        <path id="パス_65527" data-name="パス 65527" d="M45.963,74.686V13.51h-2.59V9.843h-3.95v-3.3H35.8V3.7H24.178V6.547H20.551v3.3H16.6V13.51h-2.59V74.627" transform="translate(6.834 1.808)" fill="none" stroke="#fff" stroke-linecap="round" stroke-linejoin="round" stroke-width="0.994"/>
        <line id="線_81" data-name="線 81" y2="4.669" transform="translate(36.821 0.74)" fill="none" stroke="#fff" stroke-linecap="round" stroke-linejoin="round" stroke-width="0.994"/>
      </g>
    </g>
    <rect id="長方形_42620" data-name="長方形 42620" width="7.35" height="7.35" transform="translate(26.554 18.757)" fill="none" stroke="#fff" stroke-linecap="round" stroke-linejoin="round" stroke-width="0.994"/>
    <rect id="長方形_42621" data-name="長方形 42621" width="7.35" height="7.35" transform="translate(39.739 18.757)" fill="none" stroke="#fff" stroke-linecap="round" stroke-linejoin="round" stroke-width="0.994"/>
    <rect id="長方形_42622" data-name="長方形 42622" width="7.35" height="7.35" transform="translate(26.554 30.55)" fill="none" stroke="#fff" stroke-linecap="round" stroke-linejoin="round" stroke-width="0.994"/>
    <rect id="長方形_42623" data-name="長方形 42623" width="7.35" height="7.35" transform="translate(39.739 30.55)" fill="none" stroke="#fff" stroke-linecap="round" stroke-linejoin="round" stroke-width="0.994"/>
    <rect id="長方形_42624" data-name="長方形 42624" width="7.35" height="7.35" transform="translate(26.554 42.343)" fill="none" stroke="#fff" stroke-linecap="round" stroke-linejoin="round" stroke-width="0.994"/>
    <rect id="長方形_42625" data-name="長方形 42625" width="7.35" height="7.35" transform="translate(39.739 42.343)" fill="none" stroke="#fff" stroke-linecap="round" stroke-linejoin="round" stroke-width="0.994"/>
    <rect id="長方形_42626" data-name="長方形 42626" width="7.35" height="7.35" transform="translate(26.554 54.135)" fill="none" stroke="#fff" stroke-linecap="round" stroke-linejoin="round" stroke-width="0.994"/>
    <rect id="長方形_42627" data-name="長方形 42627" width="7.35" height="7.35" transform="translate(39.739 54.135)" fill="none" stroke="#fff" stroke-linecap="round" stroke-linejoin="round" stroke-width="0.994"/>
    <g id="グループ_48049" data-name="グループ 48049" transform="translate(0 0)">
      <g id="グループ_48067" data-name="グループ 48067">
        <line id="線_82" data-name="線 82" x2="57.245" transform="translate(17.201 76.985)" fill="none" stroke="#fff" stroke-linecap="round" stroke-linejoin="round" stroke-width="0.994"/>
        <path id="パス_65528" data-name="パス 65528" d="M19.3,54.649V44.7H35.515v9.95" transform="translate(9.414 21.804)" fill="none" stroke="#fff" stroke-linecap="round" stroke-linejoin="round" stroke-width="0.994"/>
        <line id="線_83" data-name="線 83" y2="9.91" transform="translate(36.821 66.502)" fill="none" stroke="#fff" stroke-linecap="round" stroke-linejoin="round" stroke-width="0.994"/>
        <path id="パス_65529" data-name="パス 65529" d="M35.561,12.992H52.1v3.44H54.48V70.156" transform="translate(17.346 6.338)" fill="none" stroke="#fff" stroke-linecap="round" stroke-linejoin="round" stroke-width="0.994"/>
      </g>
    </g>
    <rect id="長方形_42629" data-name="長方形 42629" width="5.241" height="5.241" transform="translate(59.745 26.373)" fill="none" stroke="#fff" stroke-linecap="round" stroke-linejoin="round" stroke-width="0.994"/>
    <rect id="長方形_42630" data-name="長方形 42630" width="5.241" height="5.241" transform="translate(59.745 36.036)" fill="none" stroke="#fff" stroke-linecap="round" stroke-linejoin="round" stroke-width="0.994"/>
    <rect id="長方形_42631" data-name="長方形 42631" width="5.241" height="5.241" transform="translate(59.745 45.7)" fill="none" stroke="#fff" stroke-linecap="round" stroke-linejoin="round" stroke-width="0.994"/>
    <rect id="長方形_42632" data-name="長方形 42632" width="5.241" height="5.241" transform="translate(59.745 55.364)" fill="none" stroke="#fff" stroke-linecap="round" stroke-linejoin="round" stroke-width="0.994"/>
    <rect id="長方形_42633" data-name="長方形 42633" width="5.241" height="5.241" transform="translate(59.745 65.027)" fill="none" stroke="#fff" stroke-linecap="round" stroke-linejoin="round" stroke-width="0.994"/>
    <g id="グループ_48051" data-name="グループ 48051" transform="translate(0 0)">
      <g id="グループ_48050" data-name="グループ 48050" clip-path="url(#clip-path)">
        <path id="パス_65530" data-name="パス 65530" d="M19.643,23.829a5.793,5.793,0,0,0-10.885-.671A5.808,5.808,0,1,0,6.311,34.23h.01c0,.039,0,.031-.01.031H20.479V23.829Z" transform="translate(0.242 9.587)" fill="none" stroke="#fff" stroke-linecap="round" stroke-linejoin="round" stroke-width="0.994"/>
        <path id="パス_65531" data-name="パス 65531" d="M48.954,21.057a5.079,5.079,0,0,1,9.543-.589,5.092,5.092,0,1,1,2.145,9.708h-.01c0,.034,0,.028.01.028H48.221V21.057Z" transform="translate(23.521 8.486)" fill="none" stroke="#fff" stroke-linecap="round" stroke-linejoin="round" stroke-width="0.994"/>
      </g>
    </g>
  </g>
</svg>
