<svg id="グループ_39593" data-name="グループ 39593" xmlns="http://www.w3.org/2000/svg" width="61.129" height="46.173" viewBox="0 0 61.129 46.173">
  <g id="グループ_39594" data-name="グループ 39594">
    <path id="パス_46775" data-name="パス 46775" d="M56.838,29.26H4.519V3.5a3,3,0,0,1,3-3H53.838a3,3,0,0,1,3,3Z" fill="none" stroke="#fff" stroke-miterlimit="10" stroke-width="1"/>
    <path id="パス_46776" data-name="パス 46776" d="M56.838,29.26l3.791,13.413a3,3,0,0,1-3,3H3.5a3,3,0,0,1-3-3L4.519,29.26" fill="none" stroke="#fff" stroke-miterlimit="10" stroke-width="1"/>
    <line id="線_15" data-name="線 15" x2="60.128" transform="translate(0.5 42.673)" fill="none" stroke="#fff" stroke-miterlimit="10" stroke-width="1"/>
    <path id="パス_46777" data-name="パス 46777" d="M22.583,42.425l1.785-5.948a1,1,0,0,1,.958-.713H35.8a1,1,0,0,1,.958.713l1.787,5.948" fill="none" stroke="#fff" stroke-miterlimit="10" stroke-width="1"/>
    <line id="線_16" data-name="線 16" x2="52.319" transform="translate(4.518 14.88)" fill="none" stroke="#fff" stroke-miterlimit="10" stroke-width="1"/>
    <line id="線_17" data-name="線 17" y2="28.76" transform="translate(30.678 0.5)" fill="none" stroke="#fff" stroke-miterlimit="10" stroke-width="1"/>
    <circle id="楕円形_22" data-name="楕円形 22" cx="2.725" cy="2.725" r="2.725" transform="translate(14.835 3.473)" fill="none" stroke="#fff" stroke-miterlimit="10" stroke-width="1"/>
    <path id="パス_46778" data-name="パス 46778" d="M22.976,14.88H12.022v-.831a3,3,0,0,1,3-3h4.954a3,3,0,0,1,3,3Z" fill="none" stroke="#fff" stroke-miterlimit="10" stroke-width="1"/>
    <circle id="楕円形_23" data-name="楕円形 23" cx="2.725" cy="2.725" r="2.725" transform="translate(41.082 3.473)" fill="none" stroke="#fff" stroke-miterlimit="10" stroke-width="1"/>
    <path id="パス_46779" data-name="パス 46779" d="M49.224,14.88H38.27v-.831a3,3,0,0,1,3-3h4.954a3,3,0,0,1,3,3Z" fill="none" stroke="#fff" stroke-miterlimit="10" stroke-width="1"/>
    <circle id="楕円形_24" data-name="楕円形 24" cx="2.725" cy="2.725" r="2.725" transform="translate(14.835 17.852)" fill="none" stroke="#fff" stroke-miterlimit="10" stroke-width="1"/>
    <path id="パス_46780" data-name="パス 46780" d="M22.976,28.823H12.022v-.831a3,3,0,0,1,3-3h4.954a3,3,0,0,1,3,3Z" transform="translate(0 0.437)" fill="none" stroke="#fff" stroke-miterlimit="10" stroke-width="1"/>
    <circle id="楕円形_25" data-name="楕円形 25" cx="2.725" cy="2.725" r="2.725" transform="translate(41.082 17.852)" fill="none" stroke="#fff" stroke-miterlimit="10" stroke-width="1"/>
    <path id="パス_46781" data-name="パス 46781" d="M49.224,28.823H38.27v-.831a3,3,0,0,1,3-3h4.954a3,3,0,0,1,3,3Z" transform="translate(0 0.437)" fill="none" stroke="#fff" stroke-miterlimit="10" stroke-width="1"/>
  </g>
</svg>
