<svg xmlns="http://www.w3.org/2000/svg" width="111.302" height="36.291" viewBox="0 0 111.302 36.291">
  <path id="合体_1" data-name="合体 1" d="M51.831,35.125a2.238,2.238,0,0,1-.094-1.308,3.469,3.469,0,0,0,.129-.589,4.312,4.312,0,0,1,.365-.942,4.153,4.153,0,0,0,.294-.684,25.082,25.082,0,0,1,1.685-3.38,5.557,5.557,0,0,0,.554-1.013A1.147,1.147,0,0,1,55,26.772a1.808,1.808,0,0,0,.294-.754,6.631,6.631,0,0,1,.177-.86,3.891,3.891,0,0,0,.118-.542c0-.248-.472-.259-1.119-.035-.719.248-1.084.177-1.308-.294a.869.869,0,0,1,.306-.978,5.227,5.227,0,0,1,2.379-.353,1.646,1.646,0,0,1,1.084,1.3,1.335,1.335,0,0,0,.153.554.807.807,0,0,0,.318-.224,20.246,20.246,0,0,1,2.25-1.52,10.66,10.66,0,0,1,2.415-.919c.919-.211.931-.2,1.308.2.4.436.424.613.106.907-.189.177-.483.248-1.237.283a4.056,4.056,0,0,0-2.073.625A9.389,9.389,0,0,0,57.238,26.4,8.972,8.972,0,0,0,55,30.129c-.189.507-.4,1.013-.46,1.119a28.346,28.346,0,0,0-1.142,2.8.953.953,0,0,1-.059.295,1.193,1.193,0,0,0-.047.177,1.385,1.385,0,0,1-.342.671.9.9,0,0,1-.463.092A1.033,1.033,0,0,1,51.831,35.125Zm-42.15-.389a2.8,2.8,0,0,1-2.439-.849,6.932,6.932,0,0,1-1.425-2.226,13.189,13.189,0,0,1,.2-6.832c.129-.436.248-.931.282-1.107a3.7,3.7,0,0,1,.271-.825,12.209,12.209,0,0,0,.412-1.213c.106-.389.294-1.025.412-1.413a8.841,8.841,0,0,0,.295-1.107,1.7,1.7,0,0,0-.377-1.414,2.6,2.6,0,0,0-2.026.165c-.165.083-.53.248-.825.365a5.226,5.226,0,0,0-1.649,1.061,3.44,3.44,0,0,1-1.484.872.65.65,0,0,0-.424.236c-.212.247-.765.435-.883.306-.047-.047-.012-.248.059-.46A2.278,2.278,0,0,0,.222,19.7a.5.5,0,0,1,.212-.342,5.57,5.57,0,0,0,.73-.86c.518-.707.907-1.19,1.885-2.332.294-.33.754-.907,1.025-1.261a9.523,9.523,0,0,1,2.533-2.45,4.8,4.8,0,0,1,.636-.259,1.82,1.82,0,0,0,.424-.259A16.32,16.32,0,0,1,9.1,11.152a3.272,3.272,0,0,1,1.649-.519c1.19.024,2.085,1.131,2.333,2.875a6.088,6.088,0,0,1-.036,2.486c-.071.282-.153.659-.177.836a2.117,2.117,0,0,1-.224.648,12.418,12.418,0,0,0-.719,1.673c-.012.094-.118.495-.224.883a9.423,9.423,0,0,0-.459,2.238,1.463,1.463,0,0,1-.047.6,6.074,6.074,0,0,0,.212,2.344,1.8,1.8,0,0,1,.177.518,1.608,1.608,0,0,0,.989,1.308,2.15,2.15,0,0,0,1.379-.059,4.951,4.951,0,0,0,1.19-.365,1,1,0,0,1,.412-.165,9.432,9.432,0,0,0,1.767-1.331.788.788,0,0,1,.318-.2,40.048,40.048,0,0,0,4.312-4.464c.389-.543.978-1.308,1.308-1.708s.883-1.131,1.237-1.649.719-1.037.813-1.178a26.2,26.2,0,0,1,2.32-2.651c.307-.282,1.261-1.189,2.1-2a24.528,24.528,0,0,1,2.933-2.6c.035,0-.106.248-.342.554a8.08,8.08,0,0,0-1.06,2.109,4.683,4.683,0,0,1-.495,1,5.249,5.249,0,0,0-.543,1.049,6.4,6.4,0,0,1-.365.883c-.153.294-.165.377-.023.471.118.095.129.295.047.942a21.534,21.534,0,0,0,.389,5.584,7.589,7.589,0,0,0,1.3,1.6c.978,1,1.119,1.107,1.791,1.284a2.9,2.9,0,0,0,1.779.012,10.962,10.962,0,0,0,2.486-.613,19.5,19.5,0,0,0,2.65-1.567,39.682,39.682,0,0,0,3.711-3.251,11.14,11.14,0,0,1,1.52-1.744,29.2,29.2,0,0,0,3.145-3.9,28.138,28.138,0,0,0,1.508-2.415A13.275,13.275,0,0,1,50.9,9.491c.248-.353.671-.954.931-1.319a3.157,3.157,0,0,1,.683-.789,4.383,4.383,0,0,0,.73-.8,39.81,39.81,0,0,1,2.722-2.957c.118-.106.435-.424.707-.707a4.605,4.605,0,0,1,.931-.73,6.752,6.752,0,0,0,.931-.648A7.513,7.513,0,0,1,60.949.325c.259-.071.659-.177.883-.248a2.81,2.81,0,0,1,.825-.07,11.946,11.946,0,0,1,3.286,1.661,5.734,5.734,0,0,1,.86,2.568,1.074,1.074,0,0,1-.129.636c-.071.024-.129.154-.129.283a2.066,2.066,0,0,1-1.013,1.036c-.224,0-.754.7-.754.99,0,.236-.047.259-.365.212-.353-.047-.365-.035-.294.282.07.295.035.365-.271.5a.74.74,0,0,0-.4.377.418.418,0,0,1-.388.259.6.6,0,0,0-.519.412,1.234,1.234,0,0,1-.9.625,6.7,6.7,0,0,1-.377-.742c-.53-1.084-.648-1.19-1.637-1.532-.448-.153-.495-.141-.778.106-.177.154-.318.319-.318.389A11.493,11.493,0,0,1,57.3,9.42a8.308,8.308,0,0,0-1.237,1.4,2.925,2.925,0,0,1-.577.825,3.959,3.959,0,0,0-.648.954.757.757,0,0,1-.389.447,7,7,0,0,0-1.637,2.45,7.653,7.653,0,0,1-1.614,2.062c-.648.648-1.378,1.461-1.637,1.79a2.338,2.338,0,0,1-.565.625c-.058,0-.189.177-.294.4a.917.917,0,0,1-.448.471.927.927,0,0,0-.459.519A4.03,4.03,0,0,1,46.53,22.6a12.276,12.276,0,0,1-1.119.789,5.419,5.419,0,0,0-.742.683c-.377.377-.942.9-1.273,1.155-1.2.966-2.368,1.885-2.756,2.156a25.6,25.6,0,0,1-3.263,1.849,8,8,0,0,0-1.107.53,17.046,17.046,0,0,1-6.126,1.355c-.883.035-1.06,0-1.472-.248a11.725,11.725,0,0,1-2.639-2.921c-.636-1.4-.636-1.461-.565-4,.047-1.308.129-2.592.188-2.839.236-.978-.012-.754-1.3,1.107a11.358,11.358,0,0,1-.836,1.1.689.689,0,0,0-.212.377,3.229,3.229,0,0,1-.613.883,5.556,5.556,0,0,0-1.2,1.6,6.721,6.721,0,0,1-1.048,1.2,11.9,11.9,0,0,0-1.272,1.414,2.22,2.22,0,0,1-.8.683,1.364,1.364,0,0,0-.483.318,9.621,9.621,0,0,1-1.849,1.779.894.894,0,0,0-.424.365,1.724,1.724,0,0,1-.613.435,1.412,1.412,0,0,0-.6.472,1.562,1.562,0,0,1-.872.683,2.849,2.849,0,0,0-.659.353,5,5,0,0,1-3.1.861Zm56.263-1.155a2.623,2.623,0,0,1-1.107-2.415v-1l-.389-.012c-.495-.012-1-.459-.9-.8a1.65,1.65,0,0,1,.389-.577.758.758,0,0,1,.812-.295l.507.035.247-.589a12.531,12.531,0,0,1,1.119-2.2.426.426,0,0,0,.153-.271.724.724,0,0,1,.236-.353.709.709,0,0,0,.236-.342,1.8,1.8,0,0,1,.389-.565c.2-.247.589-.683.848-.989a4.242,4.242,0,0,1,1.838-1.319,2.122,2.122,0,0,1,1.708.141c.849.389,1.072.825,1.013,1.92L73,24.781l-.66.542a11.956,11.956,0,0,0-1.178,1.119,17.06,17.06,0,0,1-2.592,2.226,11.208,11.208,0,0,1-1.319.73c-.919.46-.931.472-1,1a1.857,1.857,0,0,0,0,.73.717.717,0,0,1,.071.353c-.035.248.506.954.978,1.272.86.577,1.92.342,3.687-.848,2.1-1.414,2.862-1.756,3.193-1.425.377.376.106.8-.978,1.484-.849.543-.883.565-1.532,1-.318.212-.824.518-1.119.671a6.919,6.919,0,0,0-.707.424,4.86,4.86,0,0,1-1.861.518A3.065,3.065,0,0,1,65.944,33.581Zm3.393-9.448a15.42,15.42,0,0,0-1.861,2.65c-.142.307-.319.7-.412.872-.141.306-.129.33.071.33.129,0,.235-.047.235-.106s.212-.188.46-.295a5.4,5.4,0,0,0,1.249-.9,5.519,5.519,0,0,1,.883-.707,8.316,8.316,0,0,0,1.6-1.968.431.431,0,0,0-.189-.53.98.98,0,0,0-.519-.212A2.8,2.8,0,0,0,69.337,24.133Zm7.68,9.954a1.716,1.716,0,0,1-.483-1.308,5.062,5.062,0,0,0,.082-.577,1.927,1.927,0,0,1,.354-.824,1.469,1.469,0,0,0,.294-.436,1.074,1.074,0,0,1,.271-.389,7.946,7.946,0,0,0,.589-.754c1.331-1.9,5.1-4.818,6.421-4.971.518-.059.6-.188.33-.554a3.762,3.762,0,0,0-2.191-.412c-.872.248-1.885.907-1.885,1.226,0,.07-.236.282-.542.459-.789.472-1.343.248-1.343-.554,0-.212.188-.447.683-.86a6.349,6.349,0,0,0,.766-.719.336.336,0,0,1,.224-.142.709.709,0,0,0,.341-.188A4.422,4.422,0,0,1,82,22.614a4.366,4.366,0,0,1,3.193.106,2.455,2.455,0,0,1,1.649,2.321,1.758,1.758,0,0,1-.224,1.343,3.163,3.163,0,0,0-.33.824,1.74,1.74,0,0,1-.341.683,1.97,1.97,0,0,0-.318.5.715.715,0,0,1-.177.271,1.079,1.079,0,0,0-.259.519c-.035.188-.106.342-.165.342s-.106.094-.106.224a2.478,2.478,0,0,1-.177.648c-.283.659-.118.848.824.931a2.536,2.536,0,0,0,1.508-.212,4.51,4.51,0,0,0,.9-.459c.295-.259.73-.283.883-.035.106.188.035.306-.506.8a4.289,4.289,0,0,1-2.215,1.2c-1.19.271-2.5-.106-2.851-.825-.106-.211-.235-.388-.306-.388a2.941,2.941,0,0,0-.695.53,2.364,2.364,0,0,1-.707.53,3.265,3.265,0,0,0-.778.6A4.417,4.417,0,0,1,78.431,34.3a4.681,4.681,0,0,1-.649.063A1.13,1.13,0,0,1,77.017,34.087Zm7.316-7.493a6.16,6.16,0,0,0-1.944.92,16.324,16.324,0,0,0-2.4,2.026c-.236.271-.506.577-.6.671a7.2,7.2,0,0,0-1.3,1.849.6.6,0,0,1-.118.353c-.094.095-.059.2.083.377l.212.259.683-.236a4.281,4.281,0,0,0,1.355-.8c.377-.306.907-.742,1.2-.966a11.023,11.023,0,0,0,1.767-1.767.778.778,0,0,1,.235-.294,4.127,4.127,0,0,0,.589-.931c.2-.4.46-.884.577-1.073a1.643,1.643,0,0,0,.236-.447c.005-.042,0-.065-.056-.065A2.857,2.857,0,0,0,84.333,26.595Zm7.975,4.936a1.778,1.778,0,0,1-.978-1.449,5.185,5.185,0,0,1,.754-2.922,10.941,10.941,0,0,1,3.393-4.311,4.915,4.915,0,0,0,.577-.472,12.46,12.46,0,0,1,2.839-1.413c1.331-.389,2.685-.047,3.051.778.2.447.212.447.483.282a1.087,1.087,0,0,0,.354-.436c.035-.141.211-.554.365-.907a7.616,7.616,0,0,0,.695-1.861,2.41,2.41,0,0,1,.282-.648,1.652,1.652,0,0,0,.236-.754.749.749,0,0,1,.106-.448,1.325,1.325,0,0,0,.259-.506,10.443,10.443,0,0,1,.436-1.084c.153-.353.33-.754.377-.883s.177-.424.271-.648.259-.683.365-1a8.066,8.066,0,0,1,.719-1.861A.678.678,0,0,0,107,10.5a.917.917,0,0,1,.248-.648,1.472,1.472,0,0,0,.294-.636,10.785,10.785,0,0,1,.542-1.967,6.085,6.085,0,0,0,.353-1.944c.059-.73.047-.86-.188-1.155a.578.578,0,0,0-.659-.271,1.2,1.2,0,0,1-.872-.295c-.259-.188-.471-.4-.471-.471,0-.283.942-.872,1.532-.954.612-.094,1.743.436,1.85.849a2.151,2.151,0,0,0,.259.588A4.6,4.6,0,0,1,110,5.78a1.53,1.53,0,0,0-.13.53,6.229,6.229,0,0,1-.247.942c-.106.294-.377,1.143-.613,1.885a13.487,13.487,0,0,1-.577,1.59,8.528,8.528,0,0,0-.613,1.649,2.2,2.2,0,0,1-.153.472,3.382,3.382,0,0,0-.2.612,8.194,8.194,0,0,1-.459,1.131,14.507,14.507,0,0,0-.648,1.685c-.141.448-.294.919-.353,1.048-.094.212-.282.672-.589,1.414-.058.129-.177.424-.282.648-.259.613-1.532,4.548-1.543,4.772a6.018,6.018,0,0,1-.365.883,9.269,9.269,0,0,0-.447,1.1,3.157,3.157,0,0,1-.377.789c-.565.848-.507,2.532.106,2.992.294.211.365.223.931.082a4.191,4.191,0,0,0,.742-.248c.071-.058.46-.271.883-.495s.966-.518,1.214-.659c.577-.342,1.26-.33,1.26.024a12.139,12.139,0,0,1-3.181,2.368,2.94,2.94,0,0,1-2.368.342c-.707-.165-.813-.224-1.131-.671a3.262,3.262,0,0,1-.518-2.357c.106-.812-.059-1-.483-.506-.153.165-.471.53-.707.8a3.048,3.048,0,0,0-.518.707c-.035.118-.106.212-.165.212a2.891,2.891,0,0,0-.613.471,3.13,3.13,0,0,1-.577.472,1.945,1.945,0,0,0-.4.282,9.183,9.183,0,0,1-1.142.719,2.92,2.92,0,0,1-1.838.448c-.177,0-.324.007-.45.007A1.466,1.466,0,0,1,92.308,31.531Zm6.22-8.882a4.508,4.508,0,0,0-1.472.742,2.155,2.155,0,0,1-.624.518,8.138,8.138,0,0,0-2.321,2.509c-.153.283-.318.507-.377.507a.066.066,0,0,0-.07.082,1.612,1.612,0,0,1-.365.8c-.071.035-.13.248-.13.471s-.047.436-.118.472a1.453,1.453,0,0,0-.118.707c0,.589.023.659.341.813a2.113,2.113,0,0,0,.789.2,2.569,2.569,0,0,0,1.708-.613c.059-.129.165-.224.224-.224.365,0,1.508-1.119,2.992-2.945a29.673,29.673,0,0,0,2.309-3.4c0-.07.035-.129.094-.129s.153-.106.236-.248c.141-.223.129-.235-.271-.153a1.574,1.574,0,0,1-.683-.035c-.141-.07-.412-.188-.589-.259a1.332,1.332,0,0,0-.5-.12A3.168,3.168,0,0,0,98.528,22.649Z" transform="translate(0.494 0.504)" fill="#fff" stroke="rgba(0,0,0,0)" stroke-miterlimit="10" stroke-width="1"/>
</svg>
