<svg xmlns="http://www.w3.org/2000/svg" width="176.003" height="70.527" viewBox="0 0 176.003 70.527">
  <g id="グループ_48157" data-name="グループ 48157" transform="translate(0.5 0.507)">
    <g id="グループ_48158" data-name="グループ 48158" transform="translate(0 0)">
      <path id="パス_65581" data-name="パス 65581" d="M13.592,30.407h4.3c.218-.945.445-1.954.683-2.961.523-2.214,1.045-4.428,1.585-6.637a6.46,6.46,0,0,1,.454-1.255c.088-.183.32-.3.487-.441.12.2.32.389.347.6q.347,2.688.638,5.384a120,120,0,0,1,.607,16.689,1.035,1.035,0,0,1-.026.379,2.512,2.512,0,0,1-.305.42c-.123-.14-.344-.274-.354-.422-.053-.784-.063-1.572-.072-2.359a11.291,11.291,0,0,0-2.718-7.127,6.544,6.544,0,0,0-.7-.636c-.349,1.4-.6,2.694-1,3.941-.552,1.716-1.174,3.413-1.851,5.083a2.044,2.044,0,0,1-2.008,1.5c-.928-.026-1.294-.313-1.327-1.247-.069-2-.106-4-.143-5.995-.017-.925,0-1.85,0-2.9A15.046,15.046,0,0,0,10.713,33.6C7.537,36.889,4.8,40.469,3.432,44.916A15.694,15.694,0,0,0,2.9,47.6,1.611,1.611,0,0,0,4.18,49.583a12.9,12.9,0,0,0,4.783.592c2.321-.044,4.663-.07,6.81-1.1a40.427,40.427,0,0,0,4.352-2.388,51.149,51.149,0,0,0,7.889-6.35,3.8,3.8,0,0,0,1.4-3.072,8.544,8.544,0,0,1,.8-4.16,7.1,7.1,0,0,1,3.918-3.56,3.012,3.012,0,0,0,1.541-1.306Q43,16,51.347,4.434A41.154,41.154,0,0,1,54.679.675,2.576,2.576,0,0,1,55.59.1c.732-.3,1.189.069,1.045.854a11.59,11.59,0,0,1-.465,1.786,40.994,40.994,0,0,0-2.236,13.018c-.036,1.805-.061,3.619.079,5.415a5.983,5.983,0,0,0,.885,2.134,1.447,1.447,0,0,0,1.336.731c.383,0,.765.012,1.148.014.977.006,1.233.172,1.266,1.17.043,1.3-.036,2.61-.065,4.006a119.154,119.154,0,0,0,13.19.634l.078-.2c-.127-.149-.26-.292-.38-.446a14.2,14.2,0,0,1-1.036-1.363c-.364-.6-.182-1.051.464-1.324.1-.041.308-.027.334.027.053.107.071.33.005.382-.623.494-.19.9.112,1.28.275.349.614.646.921.971.486.515.394.916-.3,1.1a7.462,7.462,0,0,1-1.509.224,68.965,68.965,0,0,1-11.467-.2c-.913-.106-.94-.1-1.161.77C56.383,36.82,54.975,42.559,53.5,48.28a95.571,95.571,0,0,1-4.375,14.052,36.626,36.626,0,0,1-2.712,5.184c-1.2,1.884-3.036,2.488-5.554,1.564a5.029,5.029,0,0,1-1.537-1.1,23.5,23.5,0,0,1-4.25-5.627A40.425,40.425,0,0,1,29.93,47.7c-.3-2.078-.367-4.191-.539-6.287-.017-.208-.023-.417-.038-.7-.154.086-.289.116-.347.2-1.144,1.673-2.912,2.643-4.431,3.88a32.224,32.224,0,0,1-7.554,4.949,15.829,15.829,0,0,1-4.19,1.246,20.345,20.345,0,0,1-8.788-.4A2.68,2.68,0,0,1,1.918,47.3a17.026,17.026,0,0,1,2.8-7.66,71.24,71.24,0,0,1,4.824-6.325,16.9,16.9,0,0,1,2.407-1.963,1.379,1.379,0,0,0,.516-.646,51.417,51.417,0,0,1,4.045-11.928c.061-.129.1-.269.211-.571-.446.246-.764.418-1.08.6-1.04.583-2.063,1.215-3.35.887-.107-.027-.278.091-.385.182a13.306,13.306,0,0,0-1.041.935A39.974,39.974,0,0,1,3,27.46a16.388,16.388,0,0,1-1.824.906,1.75,1.75,0,0,1-.74.152c-.156,0-.433-.162-.434-.253a.629.629,0,0,1,.26-.492C5.545,25.2,9.439,21,13.092,16.582c3.373-4.077,6.53-8.331,9.781-12.509a.373.373,0,0,0,.045-.372c-.406.312-.842.594-1.214.942-1.6,1.5-3.131,3.068-4.779,4.509A23.152,23.152,0,0,1,12.45,12.6a5.5,5.5,0,0,1-8-4.026A49.629,49.629,0,0,1,4.2,2.784c0-.163.18-.331.277-.5.1.182.276.363.281.548.042,1.466.028,2.934.077,4.4A4.843,4.843,0,0,0,6.7,11.318a5.563,5.563,0,0,0,2.07.884,4.691,4.691,0,0,0,4.223-.839c2.3-1.986,4.6-3.976,6.863-6a12.039,12.039,0,0,1,3.895-2.712,3.069,3.069,0,0,1,.715-.076,2.928,2.928,0,0,1,.016.781,2.293,2.293,0,0,1-.38.729,169.307,169.307,0,0,1-11.16,14.422,2.294,2.294,0,0,0-.263.533c.21.043.456.177.625.112a17.958,17.958,0,0,0,2.264-.987,6.712,6.712,0,0,0,2.614-2.177,6.806,6.806,0,0,1,1.283-1.323,2.19,2.19,0,0,1,.832-.437.6.6,0,0,1,.54.162.586.586,0,0,1-.113.548c-.55.53-1.156,1-1.708,1.53a4.249,4.249,0,0,0-.883,1.062A54.356,54.356,0,0,0,13.641,29.98a2.825,2.825,0,0,0-.049.427M57.013,30.1c-1.685-.239-3.294-.491-4.91-.692a72.336,72.336,0,0,0-11.655-.216,27.664,27.664,0,0,0-3.78.5,1.416,1.416,0,0,0-.809.613c-1.146,1.79-2.253,3.605-3.369,5.414-.095.153-.169.319-.253.479a1.232,1.232,0,0,0,.532-.334,10.29,10.29,0,0,1,.965-.925c.177-.131.471-.1.713-.147a3.568,3.568,0,0,1-.08.779c-.053.166-.238.293-.372.429-1.062,1.072-2.136,2.133-3.179,3.223a1.257,1.257,0,0,0-.383.8c.153,2.48.209,4.979.568,7.432a40.47,40.47,0,0,0,4.992,14.37,22.015,22.015,0,0,0,4.032,5.389,4.845,4.845,0,0,0,1.276.927,3.151,3.151,0,0,0,4.254-1.354,47.744,47.744,0,0,0,3.116-6.473A144.2,144.2,0,0,0,53.165,44.77c1.183-4.609,2.392-9.211,3.592-13.816.068-.261.154-.518.256-.858M37.072,28.382c1.689-.1,3.357-.271,5.027-.3,2.634-.039,5.275-.091,7.9.064,2.264.133,4.513.534,6.765.845.447.062.683-.021.753-.49.145-.986.353-1.964.454-2.954.093-.9.042-.963-.88-.9a3.128,3.128,0,0,1-3.284-1.708,5.709,5.709,0,0,1-.658-2.165c-.118-1.757-.137-3.526-.107-5.289a36.554,36.554,0,0,1,2.406-12.9c.187-.475.317-.973.474-1.461a2.681,2.681,0,0,0-1.034.715c-.868,1.018-1.78,2.009-2.543,3.1Q44.467,16.249,37.266,28c-.083.136-.144.286-.194.386M15.948,31.228c-.7.148-1.4.3-2.108.44-.405.078-.543.31-.557.708-.075,2.122-.176,4.244-.252,6.366-.031.849-.024,1.7-.028,2.548,0,.419.228.536.622.5.746-.069,1.011-.641,1.275-1.2a37.4,37.4,0,0,0,2.4-7.643c.371-1.585.317-1.646-1.355-1.721M21,21.9l-.212-.014c-.049.18-.106.359-.146.541-.565,2.528-1.1,5.062-1.706,7.58-.166.691-.122,1.176.546,1.529a1.437,1.437,0,0,1,.482.5c.639.991,1.26,1.993,2.006,3.179L21,21.9M30.594,36.6l3.582-5.9a5.854,5.854,0,0,0-3.582,5.9M136.727,26.229c.178-.4.366-.789.533-1.19A58.851,58.851,0,0,1,143.1,14.3a7.077,7.077,0,0,1,2.45-2.281,3.634,3.634,0,0,1,2.521-.449,2.214,2.214,0,0,1,1.215.783,6.787,6.787,0,0,1,.939,3.654,6.952,6.952,0,0,0,.159,1.461c.172-.165.35-.323.515-.495a48.749,48.749,0,0,1,9.256-7.778,18.906,18.906,0,0,1,8.758-3.074c1.042-.071,1.246.073,1.227,1.089-.034,1.863.679,3.585.947,5.387a12.829,12.829,0,0,1,.073,3.1,3.785,3.785,0,0,1-.735,1.731c-1.452,2.017-2.966,3.99-4.459,5.978a.693.693,0,0,1-.217.231c-.443.2-.91.564-1.339.527-.578-.05-.649-.692-.742-1.2-.1-.53-.209-1.058-.328-1.653-.78.608-3,9.778-2.842,11.433.246-.115.465-.222.688-.32,2.894-1.279,5.77-2.6,8.692-3.816a9.874,9.874,0,0,1,4.334-.571.951.951,0,0,1,.712.382.933.933,0,0,1-.117.814c-1.649,2.077-3.258,4.194-5.027,6.166-1.314,1.465-2.848,2.733-4.285,4.088a1.368,1.368,0,0,0-.405.517l4.3-1.344a1.771,1.771,0,0,1,.423-.136,2.455,2.455,0,0,1,.513.086c-.1.152-.176.391-.316.443-1.891.7-3.757,1.508-5.7,2.026s-3.3,1.882-4.867,2.944c-.154.1-.2.4-.25.618a18.955,18.955,0,0,1-1.785,5.891,9.065,9.065,0,0,1-2.323,2.923,1.147,1.147,0,0,1-.893.253,1.093,1.093,0,0,1-.418-.825c-.09-1.443-.119-2.889-.173-4.334a2.843,2.843,0,0,0-.054-.329c-1.329.694-2.611,1.391-3.917,2.038a11.13,11.13,0,0,1-5.678,1.183c-.333-.02-.831-.207-.928-.447a1.132,1.132,0,0,1,.32-.985,9.386,9.386,0,0,1,1.813-1.268c2.625-1.4,5.268-2.772,7.916-4.131a.724.724,0,0,0,.437-.744,22.863,22.863,0,0,1,.171-3.432,8.1,8.1,0,0,1,3.23-5.25c.7-.518,1.415-1.016,2.1-1.558a1.024,1.024,0,0,0,.338-.618,55.388,55.388,0,0,1,2.73-10.8,6.13,6.13,0,0,1,.419-1c.355-.648,1-.669,1.31,0a11.736,11.736,0,0,1,.443,1.644,6.327,6.327,0,0,0,.344.782c.253-.139.589-.215.745-.425,1.709-2.3,3.413-4.6,5.056-6.952a2.5,2.5,0,0,0,.3-1.47,18.035,18.035,0,0,0-.371-2.963,20.314,20.314,0,0,1-.773-4.77,2.236,2.236,0,0,0-.085-.4c-.5.1-.97.167-1.435.283a26.4,26.4,0,0,0-11.218,6.087c-2.159,1.917-4.182,3.989-6.242,6.016a2.41,2.41,0,0,0-.527.983c-.345,1.092-.547,2.238-.979,3.291a55.9,55.9,0,0,1-4.7,9.329,7.232,7.232,0,0,1-1.034,1.288,1.114,1.114,0,0,1-.874.332c-.237-.077-.389-.491-.525-.782a3.268,3.268,0,0,1-.123-.765c-.234.223-.411.375-.569.545a9.6,9.6,0,0,1-3.224,2.456,5.421,5.421,0,0,1-1.665.3c-.145.012-.312-.253-.469-.391.143-.131.278-.367.429-.377,2.6-.179,3.907-2.186,5.463-3.837a.729.729,0,0,0,.155-.346c.222-1.1.434-2.2.656-3.328a.506.506,0,0,1-.1-.038c-.245-.123-.625-.2-.695-.388a.942.942,0,0,1,.246-.765c2.262-2.483,4.549-4.944,6.818-7.421a1.472,1.472,0,0,0,.424-.753,14.271,14.271,0,0,0-.261-5.066c-.292-1.083-.663-1.317-1.762-1.146a4.262,4.262,0,0,0-2.942,1.863c-1.311,1.958-2.6,3.944-3.71,6.018-1.835,3.428-3.519,6.937-5.281,10.4-.087.172-.312.274-.473.408-.063-.2-.216-.43-.172-.607q.312-1.264.717-2.5c.553-1.7,1.157-3.378,1.692-5.081a9.55,9.55,0,0,0,.136-4.858.984.984,0,0,1-.064-.373,2.781,2.781,0,0,1,.219-.5c.114.129.3.243.33.389.124.624.22,1.256.291,1.889a12.992,12.992,0,0,1-.864,5.373c-.169.541-.351,1.077-.527,1.615l.119.048m37.753,2.4a9.941,9.941,0,0,0-3.577.42,60.779,60.779,0,0,0-10.334,4.792,1.007,1.007,0,0,0-.376.714c-.2,2.179-.372,4.361-.548,6.543-.013.16,0,.321,0,.707a29.83,29.83,0,0,0,3.132-1.6,50.194,50.194,0,0,0,9.682-9.189c.649-.747,1.28-1.508,2.022-2.384m-15.34,6.118c-3.665,2.316-5.031,4.734-4.744,9.193.229-.093.442-.172.648-.264,1.008-.453,2.007-.929,3.026-1.355a.763.763,0,0,0,.529-.755c.093-1.314.225-2.626.331-3.94.077-.942.138-1.886.209-2.878m-16.479-1.525c1.538-1.242,6.172-10.525,6.014-12.162-.445.57-.79,1.208-1.217,1.788-.576.781-1.211,1.52-1.832,2.267-.053.064-.2.043-.294.082a2.012,2.012,0,0,0-.585.275c-1.3,1.164-1.6,2.8-2.032,4.375-.026.1.031.215.067.429a15.36,15.36,0,0,1,1.138-1.255c.155-.139.461-.111.7-.158-.026.224.025.509-.093.662a13.817,13.817,0,0,1-1.424,1.631,2.034,2.034,0,0,0-.442,2.067M158.079,45c-.209.134-.384.239-.552.356-.907.631-1.8,1.291-2.725,1.886a1.064,1.064,0,0,0-.543,1.045c.04,1.487.051,2.975.08,4.462a2.223,2.223,0,0,0,.089.413c1.8-1.013,3.445-4.778,3.651-8.162m-4.647.516c-.194.079-.388.147-.573.235q-4.022,1.918-8.04,3.844a3.347,3.347,0,0,0-.7.429,6.863,6.863,0,0,0-.617.663l.1.219c.657-.079,1.326-.1,1.969-.245a23.524,23.524,0,0,0,7.262-3.315c.868-.537.906-.718.606-1.831m.947.786,4-2.87-.1-.175c-1.051.48-2.1.957-3.153,1.44-.889.41-.887.413-.746,1.6m-64.762,4.8A6,6,0,0,0,92.206,48.6c1.327-2.541,2.665-5.087,3.786-7.721,2.173-5.1,4.1-10.314,6.312-15.4A61.5,61.5,0,0,1,113.1,8.7a21.15,21.15,0,0,1,3.155-2.551.871.871,0,0,1,.837-.017.924.924,0,0,1,.064.841,11.947,11.947,0,0,1-.94,1.586c-1.909,2.892-3.83,5.776-5.731,8.674a1.061,1.061,0,0,0-.048.6c.032.436.092.87.145,1.342a.783.783,0,0,0,.2.054,47.625,47.625,0,0,0,11.983-.982,3.793,3.793,0,0,1,.8-.159c.139,0,.276.185.413.286-.115.1-.216.269-.347.3-.5.114-1.008.161-1.505.273a43.168,43.168,0,0,1-10.971.873.821.821,0,0,0-.974.675c-1.447,4.083-3.757,7.545-7.609,9.719a3.941,3.941,0,0,0-1.843,2.143c-1.844,4.5-3.693,9.008-5.68,13.45a24.974,24.974,0,0,1-2.8,4.541,6.969,6.969,0,0,1-2.191,1.7c-.847.484-1.49.074-1.377-.9a31.987,31.987,0,0,1,.81-4.569c1.477-5.524,3.089-11.012,4.528-16.545.63-2.421.985-4.914,1.422-7.383a11.647,11.647,0,0,0,.014-1.865,5.847,5.847,0,0,0-.867.664c-.972,1.1-1.995,2.162-2.855,3.342-2.53,3.471-4.989,6.993-7.482,10.49-.444.623-.9,1.239-1.4,1.82-.153.179-.459.228-.695.336a2.133,2.133,0,0,1,.109-.728c3.4-6.026,7.318-11.721,11.108-17.5,2.484-3.786,4.875-7.633,7.317-11.447.248-.387.484-1.026,1.1-.593.565.4.064.836-.172,1.2Q97.432,14.9,93.236,21.416a.326.326,0,0,0-.039.276c.363-.332.718-.673,1.094-.991a3.89,3.89,0,0,1,.682-.467c.848-.45,1.442-.169,1.4.783a35.967,35.967,0,0,1-.449,5.064A160.572,160.572,0,0,1,91.47,43.429c-.666,2.194-1.184,4.433-1.755,6.655a7.293,7.293,0,0,0-.1,1.025m19.59-31.83-7.354,10.328.105.119c.326-.177.666-.332.974-.535a17.8,17.8,0,0,0,6.527-8.573c.218-.537.281-.992-.253-1.339m6.11-11.253-.137-.077A70.545,70.545,0,0,0,104.263,24.16l.254.17,10.8-16.305m.678,23.1a2.035,2.035,0,0,1-.528.126,2.786,2.786,0,0,1-.6-.141c.136-.134.25-.339.412-.389.526-.163,1.072-.26,1.607-.4a7.78,7.78,0,0,0,1.137-.349c1.945-.846,3.832-1.863,5.839-2.514A16.485,16.485,0,0,1,128.084,27c.812-.04,1.034.276,1.084,1.088a3.39,3.39,0,0,1-.889,2.451q-3.144,3.773-6.272,7.561c-.142.172-.275.352-.469.6.267.023.428.048.589.05,2.977.043,5.954.088,8.93.116.376,0,.751-.107,1.129-.127a1.255,1.255,0,0,1,.429.143c-.085.127-.147.333-.26.367a4.507,4.507,0,0,1-1.173.238c-2.636.062-5.277.2-7.908.1a5,5,0,0,0-4.4,1.881,24.384,24.384,0,0,1-6.249,5.2,1.782,1.782,0,0,1-.39.215,6.015,6.015,0,0,0-2.74,2.156c-1.235,1.369-2.549,2.675-3.914,3.915a3.812,3.812,0,0,1-1.77.776c-.772.154-1.1-.185-1.12-.99a13.8,13.8,0,0,1,.789-5.268,31.861,31.861,0,0,1,7.926-12.266c1.481-1.4,3.037-2.714,4.584-4.09m2.507.022-.213-.066a4.709,4.709,0,0,0-.528.318c-1.548,1.225-3.178,2.364-4.616,3.708a29.95,29.95,0,0,0-5.79,6.836,28.569,28.569,0,0,0-3.27,7.029,12.111,12.111,0,0,0-.385,3.958c2.333-1.111,3.719-3.015,5.3-4.775-1.1-.281-1.4-.619-1.161-1.685a6.864,6.864,0,0,1,1.023-2.56,12.766,12.766,0,0,1,6-4.35,1.419,1.419,0,0,0,.7-.395,16.871,16.871,0,0,0,2.6-5.222,23.05,23.05,0,0,0,.331-2.8m-1.586,7.814c1.081-.065,2.055-.111,3.025-.2a.819.819,0,0,0,.452-.309c2.46-2.875,4.923-5.748,7.354-8.649a3.673,3.673,0,0,0,.595-1.3c.157-.525-.071-.812-.658-.74-.7.085-1.4.133-2.089.24a19.273,19.273,0,0,0-6.641,2.713c.924,3.145-.552,5.644-2.037,8.245m-2.458,2.017L114.3,40.8a11.341,11.341,0,0,0-5.3,4.234,5.742,5.742,0,0,0-.491,1.877c-.02.105.264.394.337.371.433-.133.992-.217,1.24-.53,1.5-1.894,2.923-3.846,4.373-5.778m4.6-1.066-.086-.187c-.815.118-1.635.209-2.442.369a1.155,1.155,0,0,0-.632.446c-1.091,1.516-2.156,3.05-3.23,4.578-.149.212-.3.42-.457.63a31.15,31.15,0,0,0,6.847-5.836m10.56-21.491a4.142,4.142,0,0,1-.479.953c-1.392,1.577-2.819,3.124-4.218,4.7a1.645,1.645,0,0,0-.2.585c.181-.024.439.021.532-.083,1.556-1.717,3.121-3.427,4.6-5.207a1.655,1.655,0,0,0,.1-1.364c-.081-.237-.649-.35-1.017-.432a1.633,1.633,0,0,0-.819.063,18.63,18.63,0,0,0-3.83,1.343c-2.441,1.454-4.8,3.066-7.1,4.741-3.418,2.492-6.746,5.108-10.134,7.642-.8.6-1.678,1.078-2.529,1.6a3.109,3.109,0,0,1-.6.192,4.161,4.161,0,0,1,.219-.413c1.849-2.512,3.5-5.191,6.075-7.088.163-.12.206-.4.3-.612a1.737,1.737,0,0,0-.643.17,20.9,20.9,0,0,0-4.685,5.09c-.582.913-1.274,1.755-1.862,2.664-.377.582-.122,1,.553.888a4.869,4.869,0,0,0,1.736-.58c1.646-1.012,3.293-2.036,4.849-3.179,3.941-2.895,7.826-5.865,11.746-8.788a17.461,17.461,0,0,1,5.456-2.712c.575-.173,1.181-.241,1.773-.357l.159.187" transform="translate(0 0)" fill="#888" stroke="#888" stroke-width="1"/>
    </g>
  </g>
</svg>
